<mxfile host="app.diagrams.net" modified="2022-06-07T03:01:46.101Z" agent="5.0 (Windows NT 10.0; Win64; x64) AppleWebKit/537.36 (KHTML, like Gecko) Chrome/102.0.5005.63 Safari/537.36 Edg/102.0.1245.33" etag="egoNfCQ3MaVh4AN2LA7Y" version="18.2.0" type="github">
  <diagram id="C5RBs43oDa-KdzZeNtuy" name="Page-1">
    <mxGraphModel dx="813" dy="435" grid="1" gridSize="10" guides="1" tooltips="1" connect="1" arrows="1" fold="1" page="1" pageScale="1" pageWidth="827" pageHeight="1169" math="0" shadow="0">
      <root>
        <mxCell id="WIyWlLk6GJQsqaUBKTNV-0" />
        <mxCell id="WIyWlLk6GJQsqaUBKTNV-1" parent="WIyWlLk6GJQsqaUBKTNV-0" />
        <mxCell id="r5PWcpmc7gDU40b77l6q-9" value="" style="edgeStyle=orthogonalEdgeStyle;rounded=0;orthogonalLoop=1;jettySize=auto;html=1;exitX=0.5;exitY=1;exitDx=0;exitDy=0;entryX=0.503;entryY=-0.044;entryDx=0;entryDy=0;entryPerimeter=0;" edge="1" parent="WIyWlLk6GJQsqaUBKTNV-1" source="r5PWcpmc7gDU40b77l6q-44" target="r5PWcpmc7gDU40b77l6q-43">
          <mxGeometry relative="1" as="geometry">
            <mxPoint x="220" y="120" as="sourcePoint" />
            <mxPoint x="220" y="130" as="targetPoint" />
          </mxGeometry>
        </mxCell>
        <mxCell id="r5PWcpmc7gDU40b77l6q-30" value="" style="edgeStyle=orthogonalEdgeStyle;rounded=0;orthogonalLoop=1;jettySize=auto;html=1;" edge="1" parent="WIyWlLk6GJQsqaUBKTNV-1" target="r5PWcpmc7gDU40b77l6q-17">
          <mxGeometry relative="1" as="geometry">
            <mxPoint x="220" y="200" as="sourcePoint" />
          </mxGeometry>
        </mxCell>
        <mxCell id="r5PWcpmc7gDU40b77l6q-19" value="" style="edgeStyle=orthogonalEdgeStyle;rounded=0;orthogonalLoop=1;jettySize=auto;html=1;" edge="1" parent="WIyWlLk6GJQsqaUBKTNV-1" source="r5PWcpmc7gDU40b77l6q-17" target="r5PWcpmc7gDU40b77l6q-18">
          <mxGeometry relative="1" as="geometry" />
        </mxCell>
        <mxCell id="r5PWcpmc7gDU40b77l6q-20" value="是" style="edgeLabel;html=1;align=center;verticalAlign=middle;resizable=0;points=[];" vertex="1" connectable="0" parent="r5PWcpmc7gDU40b77l6q-19">
          <mxGeometry x="-0.1344" y="1" relative="1" as="geometry">
            <mxPoint as="offset" />
          </mxGeometry>
        </mxCell>
        <mxCell id="r5PWcpmc7gDU40b77l6q-22" value="" style="edgeStyle=orthogonalEdgeStyle;rounded=0;orthogonalLoop=1;jettySize=auto;html=1;" edge="1" parent="WIyWlLk6GJQsqaUBKTNV-1" source="r5PWcpmc7gDU40b77l6q-17" target="r5PWcpmc7gDU40b77l6q-21">
          <mxGeometry relative="1" as="geometry" />
        </mxCell>
        <mxCell id="r5PWcpmc7gDU40b77l6q-23" value="否" style="edgeLabel;html=1;align=center;verticalAlign=middle;resizable=0;points=[];" vertex="1" connectable="0" parent="r5PWcpmc7gDU40b77l6q-22">
          <mxGeometry x="-0.3026" relative="1" as="geometry">
            <mxPoint as="offset" />
          </mxGeometry>
        </mxCell>
        <mxCell id="r5PWcpmc7gDU40b77l6q-17" value="开始接收传感器数据&lt;br&gt;判断队列是否写满" style="rhombus;whiteSpace=wrap;html=1;" vertex="1" parent="WIyWlLk6GJQsqaUBKTNV-1">
          <mxGeometry x="110" y="250" width="220" height="60" as="geometry" />
        </mxCell>
        <mxCell id="r5PWcpmc7gDU40b77l6q-18" value="数据持久化到数据库" style="whiteSpace=wrap;html=1;" vertex="1" parent="WIyWlLk6GJQsqaUBKTNV-1">
          <mxGeometry x="400" y="250" width="120" height="60" as="geometry" />
        </mxCell>
        <mxCell id="r5PWcpmc7gDU40b77l6q-25" value="" style="edgeStyle=orthogonalEdgeStyle;rounded=0;orthogonalLoop=1;jettySize=auto;html=1;" edge="1" parent="WIyWlLk6GJQsqaUBKTNV-1" source="r5PWcpmc7gDU40b77l6q-21" target="r5PWcpmc7gDU40b77l6q-24">
          <mxGeometry relative="1" as="geometry" />
        </mxCell>
        <mxCell id="r5PWcpmc7gDU40b77l6q-26" value="不成功" style="edgeLabel;html=1;align=center;verticalAlign=middle;resizable=0;points=[];" vertex="1" connectable="0" parent="r5PWcpmc7gDU40b77l6q-25">
          <mxGeometry x="0.0933" relative="1" as="geometry">
            <mxPoint as="offset" />
          </mxGeometry>
        </mxCell>
        <mxCell id="r5PWcpmc7gDU40b77l6q-28" value="" style="edgeStyle=orthogonalEdgeStyle;rounded=0;orthogonalLoop=1;jettySize=auto;html=1;" edge="1" parent="WIyWlLk6GJQsqaUBKTNV-1" source="r5PWcpmc7gDU40b77l6q-21" target="r5PWcpmc7gDU40b77l6q-27">
          <mxGeometry relative="1" as="geometry" />
        </mxCell>
        <mxCell id="r5PWcpmc7gDU40b77l6q-29" value="成功" style="edgeLabel;html=1;align=center;verticalAlign=middle;resizable=0;points=[];" vertex="1" connectable="0" parent="r5PWcpmc7gDU40b77l6q-28">
          <mxGeometry x="-0.1101" y="-1" relative="1" as="geometry">
            <mxPoint as="offset" />
          </mxGeometry>
        </mxCell>
        <mxCell id="r5PWcpmc7gDU40b77l6q-21" value="消费者消费队列数据&lt;br&gt;上传数据到平台并判断是否成功" style="rhombus;whiteSpace=wrap;html=1;" vertex="1" parent="WIyWlLk6GJQsqaUBKTNV-1">
          <mxGeometry x="120" y="350" width="200" height="80" as="geometry" />
        </mxCell>
        <mxCell id="r5PWcpmc7gDU40b77l6q-24" value="数据持久化到数据库" style="whiteSpace=wrap;html=1;" vertex="1" parent="WIyWlLk6GJQsqaUBKTNV-1">
          <mxGeometry x="400" y="360" width="120" height="60" as="geometry" />
        </mxCell>
        <mxCell id="r5PWcpmc7gDU40b77l6q-27" value="结束" style="whiteSpace=wrap;html=1;" vertex="1" parent="WIyWlLk6GJQsqaUBKTNV-1">
          <mxGeometry x="160" y="520" width="120" height="60" as="geometry" />
        </mxCell>
        <mxCell id="r5PWcpmc7gDU40b77l6q-33" value="" style="edgeStyle=orthogonalEdgeStyle;rounded=0;orthogonalLoop=1;jettySize=auto;html=1;" edge="1" parent="WIyWlLk6GJQsqaUBKTNV-1" source="r5PWcpmc7gDU40b77l6q-31" target="r5PWcpmc7gDU40b77l6q-34">
          <mxGeometry relative="1" as="geometry">
            <mxPoint x="690" y="220" as="targetPoint" />
          </mxGeometry>
        </mxCell>
        <mxCell id="r5PWcpmc7gDU40b77l6q-31" value="创建异步线程" style="rounded=0;whiteSpace=wrap;html=1;" vertex="1" parent="WIyWlLk6GJQsqaUBKTNV-1">
          <mxGeometry x="630" y="80" width="120" height="60" as="geometry" />
        </mxCell>
        <mxCell id="r5PWcpmc7gDU40b77l6q-36" value="" style="edgeStyle=orthogonalEdgeStyle;rounded=0;orthogonalLoop=1;jettySize=auto;html=1;" edge="1" parent="WIyWlLk6GJQsqaUBKTNV-1" source="r5PWcpmc7gDU40b77l6q-34" target="r5PWcpmc7gDU40b77l6q-35">
          <mxGeometry relative="1" as="geometry" />
        </mxCell>
        <mxCell id="r5PWcpmc7gDU40b77l6q-37" value="成功" style="edgeLabel;html=1;align=center;verticalAlign=middle;resizable=0;points=[];" vertex="1" connectable="0" parent="r5PWcpmc7gDU40b77l6q-36">
          <mxGeometry x="-0.1617" relative="1" as="geometry">
            <mxPoint as="offset" />
          </mxGeometry>
        </mxCell>
        <mxCell id="r5PWcpmc7gDU40b77l6q-39" value="" style="edgeStyle=orthogonalEdgeStyle;rounded=0;orthogonalLoop=1;jettySize=auto;html=1;" edge="1" parent="WIyWlLk6GJQsqaUBKTNV-1" source="r5PWcpmc7gDU40b77l6q-34" target="r5PWcpmc7gDU40b77l6q-38">
          <mxGeometry relative="1" as="geometry" />
        </mxCell>
        <mxCell id="r5PWcpmc7gDU40b77l6q-40" value="失败" style="edgeLabel;html=1;align=center;verticalAlign=middle;resizable=0;points=[];" vertex="1" connectable="0" parent="r5PWcpmc7gDU40b77l6q-39">
          <mxGeometry x="-0.269" y="-1" relative="1" as="geometry">
            <mxPoint as="offset" />
          </mxGeometry>
        </mxCell>
        <mxCell id="r5PWcpmc7gDU40b77l6q-34" value="读取数据库数据并发送会平台" style="rhombus;whiteSpace=wrap;html=1;" vertex="1" parent="WIyWlLk6GJQsqaUBKTNV-1">
          <mxGeometry x="590" y="180" width="200" height="80" as="geometry" />
        </mxCell>
        <mxCell id="r5PWcpmc7gDU40b77l6q-42" value="" style="edgeStyle=orthogonalEdgeStyle;rounded=0;orthogonalLoop=1;jettySize=auto;html=1;" edge="1" parent="WIyWlLk6GJQsqaUBKTNV-1" source="r5PWcpmc7gDU40b77l6q-35" target="r5PWcpmc7gDU40b77l6q-41">
          <mxGeometry relative="1" as="geometry" />
        </mxCell>
        <mxCell id="r5PWcpmc7gDU40b77l6q-35" value="删除数据库记录" style="whiteSpace=wrap;html=1;" vertex="1" parent="WIyWlLk6GJQsqaUBKTNV-1">
          <mxGeometry x="630" y="320" width="120" height="60" as="geometry" />
        </mxCell>
        <mxCell id="r5PWcpmc7gDU40b77l6q-38" value="结束" style="whiteSpace=wrap;html=1;" vertex="1" parent="WIyWlLk6GJQsqaUBKTNV-1">
          <mxGeometry x="860" y="190" width="120" height="60" as="geometry" />
        </mxCell>
        <mxCell id="r5PWcpmc7gDU40b77l6q-41" value="结束" style="whiteSpace=wrap;html=1;" vertex="1" parent="WIyWlLk6GJQsqaUBKTNV-1">
          <mxGeometry x="630" y="430" width="120" height="60" as="geometry" />
        </mxCell>
        <mxCell id="r5PWcpmc7gDU40b77l6q-43" value="&lt;span style=&quot;&quot;&gt;创建阻塞队列&lt;/span&gt;" style="rounded=0;whiteSpace=wrap;html=1;" vertex="1" parent="WIyWlLk6GJQsqaUBKTNV-1">
          <mxGeometry x="160" y="140" width="120" height="60" as="geometry" />
        </mxCell>
        <mxCell id="r5PWcpmc7gDU40b77l6q-44" value="&lt;span style=&quot;&quot;&gt;创建多线程消费者监听阻塞队列&lt;/span&gt;" style="rounded=0;whiteSpace=wrap;html=1;" vertex="1" parent="WIyWlLk6GJQsqaUBKTNV-1">
          <mxGeometry x="160" y="40" width="120" height="60" as="geometry" />
        </mxCell>
        <mxCell id="r5PWcpmc7gDU40b77l6q-50" value="" style="edgeStyle=orthogonalEdgeStyle;rounded=0;orthogonalLoop=1;jettySize=auto;html=1;" edge="1" parent="WIyWlLk6GJQsqaUBKTNV-1" source="r5PWcpmc7gDU40b77l6q-48" target="r5PWcpmc7gDU40b77l6q-49">
          <mxGeometry relative="1" as="geometry" />
        </mxCell>
        <mxCell id="r5PWcpmc7gDU40b77l6q-48" value="每个设备发送高频的心跳包" style="rounded=0;whiteSpace=wrap;html=1;" vertex="1" parent="WIyWlLk6GJQsqaUBKTNV-1">
          <mxGeometry x="250" y="650" width="120" height="60" as="geometry" />
        </mxCell>
        <mxCell id="r5PWcpmc7gDU40b77l6q-52" value="" style="edgeStyle=orthogonalEdgeStyle;rounded=0;orthogonalLoop=1;jettySize=auto;html=1;" edge="1" parent="WIyWlLk6GJQsqaUBKTNV-1" source="r5PWcpmc7gDU40b77l6q-49" target="r5PWcpmc7gDU40b77l6q-51">
          <mxGeometry relative="1" as="geometry" />
        </mxCell>
        <mxCell id="r5PWcpmc7gDU40b77l6q-49" value="平台接收设备的心跳包" style="rounded=0;whiteSpace=wrap;html=1;" vertex="1" parent="WIyWlLk6GJQsqaUBKTNV-1">
          <mxGeometry x="250" y="790" width="120" height="60" as="geometry" />
        </mxCell>
        <mxCell id="r5PWcpmc7gDU40b77l6q-54" value="" style="edgeStyle=orthogonalEdgeStyle;rounded=0;orthogonalLoop=1;jettySize=auto;html=1;" edge="1" parent="WIyWlLk6GJQsqaUBKTNV-1" source="r5PWcpmc7gDU40b77l6q-51" target="r5PWcpmc7gDU40b77l6q-53">
          <mxGeometry relative="1" as="geometry" />
        </mxCell>
        <mxCell id="r5PWcpmc7gDU40b77l6q-55" value="没有" style="edgeLabel;html=1;align=center;verticalAlign=middle;resizable=0;points=[];" vertex="1" connectable="0" parent="r5PWcpmc7gDU40b77l6q-54">
          <mxGeometry x="-0.2381" y="-2" relative="1" as="geometry">
            <mxPoint as="offset" />
          </mxGeometry>
        </mxCell>
        <mxCell id="r5PWcpmc7gDU40b77l6q-57" value="" style="edgeStyle=orthogonalEdgeStyle;rounded=0;orthogonalLoop=1;jettySize=auto;html=1;" edge="1" parent="WIyWlLk6GJQsqaUBKTNV-1" source="r5PWcpmc7gDU40b77l6q-51">
          <mxGeometry relative="1" as="geometry">
            <mxPoint x="310" y="1080" as="targetPoint" />
          </mxGeometry>
        </mxCell>
        <mxCell id="r5PWcpmc7gDU40b77l6q-58" value="有" style="edgeLabel;html=1;align=center;verticalAlign=middle;resizable=0;points=[];" vertex="1" connectable="0" parent="r5PWcpmc7gDU40b77l6q-57">
          <mxGeometry x="-0.1964" y="1" relative="1" as="geometry">
            <mxPoint as="offset" />
          </mxGeometry>
        </mxCell>
        <mxCell id="r5PWcpmc7gDU40b77l6q-51" value="判断是否有心跳" style="rhombus;whiteSpace=wrap;html=1;rounded=0;" vertex="1" parent="WIyWlLk6GJQsqaUBKTNV-1">
          <mxGeometry x="255" y="920" width="110" height="80" as="geometry" />
        </mxCell>
        <mxCell id="r5PWcpmc7gDU40b77l6q-53" value="设备异常处理" style="whiteSpace=wrap;html=1;rounded=0;" vertex="1" parent="WIyWlLk6GJQsqaUBKTNV-1">
          <mxGeometry x="410" y="930" width="120" height="60" as="geometry" />
        </mxCell>
        <mxCell id="r5PWcpmc7gDU40b77l6q-59" value="设备正常，结束" style="rounded=0;whiteSpace=wrap;html=1;" vertex="1" parent="WIyWlLk6GJQsqaUBKTNV-1">
          <mxGeometry x="250" y="1080" width="120" height="60" as="geometry" />
        </mxCell>
      </root>
    </mxGraphModel>
  </diagram>
</mxfile>
